<mxfile host="app.diagrams.net" modified="2023-08-11T11:11:53.726Z" agent="Mozilla/5.0 (Macintosh; Intel Mac OS X 10_15_7) AppleWebKit/537.36 (KHTML, like Gecko) Chrome/115.0.0.0 Safari/537.36" etag="C2C9qf3zG7GACboTr-YW" version="21.6.8" type="github">
  <diagram id="2f404044-711c-603c-8f00-f6bb4c023d3c" name="Page-1">
    <mxGraphModel dx="681" dy="436" grid="1" gridSize="10" guides="1" tooltips="1" connect="1" arrows="1" fold="1" page="1" pageScale="1" pageWidth="827" pageHeight="1169" background="none" math="0" shadow="0">
      <root>
        <mxCell id="0" />
        <mxCell id="1" parent="0" />
        <mxCell id="jYDq9_gpiDudvj8aXZJ2-433" value="Cluster" style="shape=mxgraph.ibm.box;prType=zone;fontStyle=0;verticalAlign=top;align=left;spacingLeft=32;spacingTop=4;fillColor=#0066CC;rounded=0;whiteSpace=wrap;html=1;strokeColor=#0066CC;strokeWidth=1;dashed=0;container=1;spacing=-4;collapsible=0;expand=0;recursiveResize=0;shadow=0;fontFamily=Helvetica;fontSize=12;fontColor=#004C99;startSize=0;labelBackgroundColor=default;" vertex="1" parent="1">
          <mxGeometry x="80" y="320" width="640" height="280" as="geometry" />
        </mxCell>
        <mxCell id="jYDq9_gpiDudvj8aXZJ2-434" value="&amp;nbsp;Node" style="shape=ext;double=1;rounded=1;whiteSpace=wrap;html=1;shadow=0;strokeColor=#4277BB;strokeWidth=3;fontFamily=Helvetica;fontSize=12;fontColor=#FFFFFF;startSize=0;fillColor=#464343;align=left;" vertex="1" parent="jYDq9_gpiDudvj8aXZJ2-433">
          <mxGeometry x="400" y="22.5" width="220" height="235" as="geometry" />
        </mxCell>
        <mxCell id="jYDq9_gpiDudvj8aXZJ2-435" value="&amp;nbsp;Node" style="shape=ext;double=1;rounded=1;whiteSpace=wrap;html=1;shadow=0;strokeColor=#4277BB;strokeWidth=3;fontFamily=Helvetica;fontSize=12;fontColor=#FFFFFF;startSize=0;fillColor=#453b3b;align=left;" vertex="1" parent="jYDq9_gpiDudvj8aXZJ2-433">
          <mxGeometry x="140" y="25" width="220" height="230" as="geometry" />
        </mxCell>
        <mxCell id="jYDq9_gpiDudvj8aXZJ2-436" value="&amp;nbsp;POD" style="ellipse;whiteSpace=wrap;html=1;shadow=0;strokeColor=#b85450;strokeWidth=3;fontFamily=Helvetica;fontSize=12;startSize=0;fillColor=#f8cecc;align=left;" vertex="1" parent="jYDq9_gpiDudvj8aXZJ2-433">
          <mxGeometry x="410" y="40" width="150" height="100" as="geometry" />
        </mxCell>
        <mxCell id="jYDq9_gpiDudvj8aXZJ2-437" value="&amp;nbsp;POD" style="ellipse;whiteSpace=wrap;html=1;shadow=0;strokeColor=#b85450;strokeWidth=3;fontFamily=Helvetica;fontSize=12;startSize=0;fillColor=#f8cecc;align=left;" vertex="1" parent="jYDq9_gpiDudvj8aXZJ2-433">
          <mxGeometry x="450" y="145" width="150" height="100" as="geometry" />
        </mxCell>
        <mxCell id="jYDq9_gpiDudvj8aXZJ2-438" value="&lt;div style=&quot;&quot;&gt;&lt;span style=&quot;background-color: initial;&quot;&gt;&amp;nbsp;POD&lt;/span&gt;&lt;/div&gt;" style="ellipse;whiteSpace=wrap;html=1;shadow=0;strokeColor=#9673a6;strokeWidth=3;fontFamily=Helvetica;fontSize=12;startSize=0;fillColor=#e1d5e7;align=left;" vertex="1" parent="jYDq9_gpiDudvj8aXZJ2-433">
          <mxGeometry x="190" y="40" width="154" height="100" as="geometry" />
        </mxCell>
        <mxCell id="jYDq9_gpiDudvj8aXZJ2-439" value="&amp;nbsp;POD" style="ellipse;whiteSpace=wrap;html=1;shadow=0;strokeColor=#9673a6;strokeWidth=3;fontFamily=Helvetica;fontSize=12;startSize=0;fillColor=#e1d5e7;align=left;" vertex="1" parent="jYDq9_gpiDudvj8aXZJ2-433">
          <mxGeometry x="160" y="150" width="164" height="100" as="geometry" />
        </mxCell>
        <mxCell id="jYDq9_gpiDudvj8aXZJ2-440" value="" style="shape=cylinder3;whiteSpace=wrap;html=1;boundedLbl=1;backgroundOutline=1;size=15;shadow=0;strokeColor=#82b366;strokeWidth=3;fontFamily=Helvetica;fontSize=12;startSize=0;fillColor=#d5e8d4;" vertex="1" parent="jYDq9_gpiDudvj8aXZJ2-433">
          <mxGeometry x="240" y="60" width="40" height="50" as="geometry" />
        </mxCell>
        <mxCell id="jYDq9_gpiDudvj8aXZJ2-441" value="" style="shape=cylinder3;whiteSpace=wrap;html=1;boundedLbl=1;backgroundOutline=1;size=15;shadow=0;strokeColor=#82b366;strokeWidth=3;fontFamily=Helvetica;fontSize=12;startSize=0;fillColor=#d5e8d4;" vertex="1" parent="jYDq9_gpiDudvj8aXZJ2-433">
          <mxGeometry x="210" y="160" width="40" height="50" as="geometry" />
        </mxCell>
        <mxCell id="jYDq9_gpiDudvj8aXZJ2-442" value="" style="shape=cylinder3;whiteSpace=wrap;html=1;boundedLbl=1;backgroundOutline=1;size=15;shadow=0;strokeColor=#82b366;strokeWidth=3;fontFamily=Helvetica;fontSize=12;startSize=0;fillColor=#d5e8d4;" vertex="1" parent="jYDq9_gpiDudvj8aXZJ2-433">
          <mxGeometry x="260" y="172.5" width="46" height="55" as="geometry" />
        </mxCell>
        <mxCell id="jYDq9_gpiDudvj8aXZJ2-443" value="" style="shape=cylinder3;whiteSpace=wrap;html=1;boundedLbl=1;backgroundOutline=1;size=15;shadow=0;strokeColor=#82b366;strokeWidth=3;fontFamily=Helvetica;fontSize=12;startSize=0;fillColor=#d5e8d4;" vertex="1" parent="jYDq9_gpiDudvj8aXZJ2-433">
          <mxGeometry x="500" y="155" width="60" height="80" as="geometry" />
        </mxCell>
        <mxCell id="jYDq9_gpiDudvj8aXZJ2-444" value="" style="shape=cylinder3;whiteSpace=wrap;html=1;boundedLbl=1;backgroundOutline=1;size=15;shadow=0;strokeColor=#82b366;strokeWidth=3;fontFamily=Helvetica;fontSize=12;startSize=0;fillColor=#d5e8d4;" vertex="1" parent="jYDq9_gpiDudvj8aXZJ2-433">
          <mxGeometry x="450" y="50" width="55" height="50" as="geometry" />
        </mxCell>
        <mxCell id="jYDq9_gpiDudvj8aXZJ2-445" value="" style="shape=cylinder3;whiteSpace=wrap;html=1;boundedLbl=1;backgroundOutline=1;size=15;shadow=0;strokeColor=#82b366;strokeWidth=3;fontFamily=Helvetica;fontSize=12;startSize=0;fillColor=#d5e8d4;" vertex="1" parent="jYDq9_gpiDudvj8aXZJ2-433">
          <mxGeometry x="510" y="65" width="40" height="50" as="geometry" />
        </mxCell>
        <mxCell id="jYDq9_gpiDudvj8aXZJ2-446" value="Container" style="text;html=1;strokeColor=none;fillColor=none;align=center;verticalAlign=middle;whiteSpace=wrap;rounded=0;fontSize=12;fontFamily=Helvetica;fontColor=#000000;" vertex="1" parent="jYDq9_gpiDudvj8aXZJ2-433">
          <mxGeometry x="253" y="80" width="60" height="30" as="geometry" />
        </mxCell>
        <mxCell id="jYDq9_gpiDudvj8aXZJ2-447" value="Containers" style="text;html=1;strokeColor=none;fillColor=none;align=center;verticalAlign=top;whiteSpace=wrap;rounded=0;fontSize=12;fontFamily=Helvetica;fontColor=#000000;" vertex="1" parent="jYDq9_gpiDudvj8aXZJ2-433">
          <mxGeometry x="220" y="185" width="60" height="30" as="geometry" />
        </mxCell>
        <mxCell id="jYDq9_gpiDudvj8aXZJ2-449" value="Containers" style="text;html=1;strokeColor=none;fillColor=none;align=center;verticalAlign=middle;whiteSpace=wrap;rounded=0;fontSize=12;fontFamily=Helvetica;fontColor=#000000;" vertex="1" parent="jYDq9_gpiDudvj8aXZJ2-433">
          <mxGeometry x="470" y="75" width="60" height="30" as="geometry" />
        </mxCell>
        <mxCell id="jYDq9_gpiDudvj8aXZJ2-450" value="Container" style="text;html=1;strokeColor=none;fillColor=none;align=center;verticalAlign=middle;whiteSpace=wrap;rounded=0;fontSize=12;fontFamily=Helvetica;fontColor=#000000;" vertex="1" parent="jYDq9_gpiDudvj8aXZJ2-433">
          <mxGeometry x="500" y="190" width="60" height="30" as="geometry" />
        </mxCell>
        <mxCell id="jYDq9_gpiDudvj8aXZJ2-451" value="&lt;font color=&quot;#b9e0a5&quot;&gt;Control Plane&lt;/font&gt;" style="text;html=1;strokeColor=none;fillColor=none;align=center;verticalAlign=middle;whiteSpace=wrap;rounded=0;fontSize=12;fontFamily=Helvetica;fontColor=#4277BB;" vertex="1" parent="jYDq9_gpiDudvj8aXZJ2-433">
          <mxGeometry y="160" width="110" height="40" as="geometry" />
        </mxCell>
        <mxCell id="jYDq9_gpiDudvj8aXZJ2-461" value="" style="shape=image;html=1;verticalLabelPosition=bottom;verticalAlign=top;imageAspect=1;aspect=fixed;image=img/clipart/Gear_128x128.png;shadow=0;strokeColor=#4277BB;strokeWidth=3;fontFamily=Helvetica;fontSize=12;fontColor=#4277BB;startSize=0;fillColor=#ffffff;" vertex="1" parent="jYDq9_gpiDudvj8aXZJ2-433">
          <mxGeometry x="29" y="109.5" width="52" height="61" as="geometry" />
        </mxCell>
        <mxCell id="jYDq9_gpiDudvj8aXZJ2-448" value="Containers" style="text;html=1;strokeColor=none;fillColor=none;align=center;verticalAlign=top;whiteSpace=wrap;rounded=0;fontSize=12;fontFamily=Helvetica;fontColor=#000000;" vertex="1" parent="1">
          <mxGeometry x="300" y="505" width="60" height="30" as="geometry" />
        </mxCell>
      </root>
    </mxGraphModel>
  </diagram>
</mxfile>
